<?xml version="1.0" encoding="UTF-8" standalone="no"?>
<!DOCTYPE svg PUBLIC "-//W3C//DTD SVG 20010904//EN"
              "http://www.w3.org/TR/2001/REC-SVG-20010904/DTD/svg10.dtd">

<svg xmlns="http://www.w3.org/2000/svg" viewBox="0 0 991 991" width="125" height="125">
  <rect fill="#ee88dd" height="991" width="991"/>
  <path id="Selection"
        fill="white" stroke="white" stroke-width="1"
        d="M 567.00,0.00
           C 567.00,0.00 771.00,0.00 771.00,0.00
             781.47,0.02 778.89,1.68 788.00,9.83
             788.00,9.83 800.00,19.58 800.00,19.58
             809.53,27.38 819.73,34.59 827.79,44.00
             827.79,44.00 841.00,65.00 841.00,65.00
             841.00,65.00 858.45,89.00 858.45,89.00
             858.45,89.00 864.00,99.00 864.00,99.00
             864.00,99.00 878.45,123.00 878.45,123.00
             880.26,125.66 884.49,130.19 883.30,133.72
             882.14,137.13 870.29,139.13 867.00,138.80
             850.98,137.22 836.66,116.17 827.00,105.00
             827.00,105.00 827.91,116.00 827.91,116.00
             827.91,116.00 829.17,140.00 829.17,140.00
             829.17,140.00 834.00,174.00 834.00,174.00
             825.73,170.89 822.04,175.19 815.00,170.99
             800.08,162.11 793.34,134.16 790.42,118.00
             790.42,118.00 787.08,95.00 787.08,95.00
             786.49,87.53 786.44,79.63 779.96,74.63
             776.83,72.22 765.87,66.11 762.00,66.52
             758.46,66.90 754.43,71.53 752.01,74.00
             743.90,82.30 737.55,90.03 731.60,100.00
             727.60,106.72 714.76,127.58 713.57,134.00
             712.94,137.38 714.28,143.38 714.72,147.00
             714.72,147.00 717.00,174.00 717.00,174.00
             717.00,174.00 717.00,192.00 717.00,192.00
             717.00,192.00 719.00,217.00 719.00,217.00
             719.00,217.00 719.00,232.00 719.00,232.00
             729.82,224.26 738.41,210.19 754.00,211.09
             760.95,211.49 773.59,214.11 778.91,218.53
             787.18,225.39 794.54,244.28 794.96,255.00
             795.16,260.04 794.39,261.61 794.09,266.00
             792.76,285.05 788.24,305.00 769.00,313.69
             764.61,315.67 760.72,316.36 756.00,317.00
             760.58,327.63 764.86,335.13 774.00,342.67
             781.68,349.01 789.49,349.40 794.29,362.00
             797.92,371.49 798.98,380.35 801.23,390.00
             801.23,390.00 815.34,440.00 815.34,440.00
             818.78,449.83 825.07,459.69 829.75,469.00
             829.75,469.00 852.74,517.00 852.74,517.00
             852.74,517.00 871.22,552.00 871.22,552.00
             871.22,552.00 881.08,564.00 881.08,564.00
             889.74,574.36 890.48,577.06 903.00,583.00
             903.00,583.00 901.00,587.00 901.00,587.00
             901.00,587.00 913.00,592.00 913.00,592.00
             913.00,592.00 913.00,594.00 913.00,594.00
             907.46,595.85 901.94,597.94 896.00,596.61
             887.26,594.65 878.35,581.96 865.00,576.00
             865.00,576.00 865.77,590.95 865.77,590.95
             865.43,592.80 864.43,594.98 862.12,594.27
             858.26,593.08 858.11,584.38 857.24,581.00
             857.24,581.00 851.67,562.00 851.67,562.00
             850.11,554.68 852.33,553.24 847.13,544.00
             847.13,544.00 822.05,508.00 822.05,508.00
             822.05,508.00 812.32,492.00 812.32,492.00
             812.32,492.00 802.32,476.00 802.32,476.00
             802.32,476.00 789.70,448.00 789.70,448.00
             781.34,429.47 774.51,413.97 770.00,394.00
             759.66,401.91 761.98,405.90 757.95,417.00
             753.18,430.12 749.39,437.30 750.04,452.00
             750.40,460.26 755.10,474.23 757.11,483.00
             759.28,492.43 759.11,497.51 759.00,507.00
             759.00,507.00 758.04,518.00 758.04,518.00
             758.04,518.00 760.97,555.00 760.97,555.00
             760.97,555.00 760.09,564.00 760.09,564.00
             760.09,564.00 759.00,585.00 759.00,585.00
             758.83,599.38 752.10,647.74 749.58,664.00
             746.19,685.84 743.73,692.97 744.00,716.00
             744.19,732.06 754.80,752.89 755.00,770.00
             755.19,786.74 753.21,788.56 750.42,804.00
             750.42,804.00 747.34,823.00 747.34,823.00
             743.64,840.91 736.03,866.25 736.00,884.00
             736.00,884.00 736.00,892.00 736.00,892.00
             735.90,900.16 733.49,904.26 734.09,913.00
             735.09,927.70 739.89,943.59 735.20,958.00
             733.59,962.97 724.83,970.64 720.00,972.30
             717.41,973.07 715.52,972.16 713.00,972.30
             710.71,972.60 708.45,973.91 706.13,973.16
             701.05,971.51 702.34,964.92 702.51,961.00
             702.51,961.00 702.51,950.00 702.51,950.00
             702.51,950.00 706.74,930.00 706.74,930.00
             706.74,930.00 710.17,898.00 710.17,898.00
             710.17,898.00 714.00,859.00 714.00,859.00
             714.00,859.00 714.00,831.00 714.00,831.00
             714.00,831.00 711.00,788.00 711.00,788.00
             710.97,766.16 711.29,760.17 707.57,738.00
             705.33,724.69 701.51,717.06 701.16,702.72
             701.16,702.72 699.09,683.00 699.09,683.00
             699.09,683.00 696.96,649.00 696.96,649.00
             696.96,649.00 696.96,640.00 696.96,640.00
             696.96,640.00 692.00,593.00 692.00,593.00
             692.00,593.00 692.00,580.00 692.00,580.00
             691.99,576.31 691.23,565.60 686.47,564.72
             683.80,564.22 677.87,570.08 676.27,572.01
             672.80,576.22 670.23,584.73 668.19,590.00
             668.19,590.00 655.80,621.00 655.80,621.00
             655.80,621.00 639.42,659.00 639.42,659.00
             639.42,659.00 630.55,686.00 630.55,686.00
             630.55,686.00 619.08,712.00 619.08,712.00
             615.06,723.71 614.92,740.87 607.13,759.00
             607.13,759.00 593.31,784.00 593.31,784.00
             593.31,784.00 577.24,817.00 577.24,817.00
             572.74,826.17 565.71,840.85 565.09,851.00
             564.61,858.94 568.76,864.18 565.83,870.00
             562.01,877.56 553.17,878.13 547.01,882.64
             544.17,884.72 542.33,887.05 540.46,890.00
             540.46,890.00 536.21,896.91 536.21,896.91
             534.02,899.71 531.81,901.09 529.00,903.15
             523.21,907.39 519.59,910.48 512.00,908.28
             509.46,907.54 507.46,906.36 506.18,903.94
             502.68,897.33 510.85,890.43 514.72,886.00
             525.90,873.18 534.07,858.11 539.48,842.00
             539.48,842.00 546.71,817.00 546.71,817.00
             546.71,817.00 562.13,760.00 562.13,760.00
             562.13,760.00 570.44,727.00 570.44,727.00
             570.44,727.00 582.11,696.00 582.11,696.00
             582.11,696.00 588.21,669.00 588.21,669.00
             588.21,669.00 593.85,648.00 593.85,648.00
             593.85,648.00 593.85,632.00 593.85,632.00
             594.16,618.69 602.23,588.51 606.28,575.00
             612.62,553.86 618.09,531.66 628.26,512.00
             636.24,496.57 649.72,484.37 654.67,475.00
             659.67,465.56 660.88,454.46 661.00,444.00
             661.00,444.00 667.58,397.00 667.58,397.00
             667.58,397.00 679.13,318.00 679.13,318.00
             680.80,306.34 683.98,300.87 684.00,288.00
             684.00,288.00 684.00,263.00 684.00,263.00
             684.00,263.00 689.72,216.00 689.72,216.00
             689.72,216.00 691.09,196.00 691.09,196.00
             691.09,196.00 695.00,133.00 695.00,133.00
             694.99,124.66 693.53,117.14 692.00,109.00
             674.68,114.62 664.88,104.20 655.16,91.00
             645.91,78.45 643.69,72.57 631.83,60.04
             631.83,60.04 597.00,30.71 597.00,30.71
             589.70,24.36 583.48,17.05 576.91,10.00
             576.91,10.00 567.00,0.00 567.00,0.00 Z
           M 669.00,26.00
           C 669.07,32.73 677.33,39.17 682.00,43.28
             692.15,52.24 696.63,57.94 704.00,69.00
             709.82,65.98 719.51,51.07 723.00,45.00
             723.00,45.00 669.00,26.00 669.00,26.00 Z" />
</svg>
