<?xml version="1.0" encoding="UTF-8" standalone="no"?>
<svg xmlns="http://www.w3.org/2000/svg" viewBox="0 0 531 531">
     <defs>
         <linearGradient id="bg-gradient" x1="0" x2="0" y1="0" y2="1">
            <stop offset="0%" stop-color="#d70064"/>
            <stop offset="100%" stop-color="#84004b"/>
          </linearGradient>
     </defs>
     <filter id="neon">
        <feFlood flood-color="#ffffff" flood-opacity="0.5" in="SourceGraphic" />
        <feComposite operator="in" in2="SourceGraphic" />
        <feGaussianBlur stdDeviation="10" />
        <feComponentTransfer result="glow1">
          <feFuncA type="linear" slope="4" intercept="0" />
        </feComponentTransfer>
        <feMerge>
           <feMergeNode in="glow1" />
           <feMergeNode in="SourceGraphic" />
        </feMerge>
      </filter>
     <rect id="bg" x="0" y="0" rx="100" ry="100" width="100%" height="100%" fill="url(#bg-gradient)"/>
     <path id="Selection" fill="#ffffdd" stroke="none" stroke-width="1" filter="url(#neon)"
        d="M 96.00,140.21
           C 96.00,140.21 105.00,140.21 105.00,140.21
             137.18,140.14 170.54,154.12 182.58,186.00
             185.36,193.36 186.91,200.09 187.00,208.00
             187.07,214.13 187.58,220.19 180.00,221.65
             177.75,222.09 175.09,221.91 173.04,220.83
             167.28,217.76 167.16,207.98 165.62,202.00
             162.83,191.14 158.99,184.90 151.00,177.01
             123.38,149.79 49.42,154.87 50.00,206.00
             50.22,224.88 64.01,236.23 79.00,245.18
             106.36,261.50 147.74,270.87 171.00,293.04
             175.76,297.58 179.98,302.10 183.02,308.00
             188.73,319.11 188.79,327.10 189.68,339.00
             189.90,342.03 189.44,343.18 189.17,346.00
             188.24,355.77 187.42,361.10 182.49,370.00
             174.53,384.35 162.06,394.32 147.00,400.40
             132.07,406.43 115.88,407.18 100.00,407.00
             82.31,406.79 56.87,398.01 43.09,386.98
             33.90,379.61 26.19,368.88 21.80,358.00
             19.14,351.39 17.09,344.16 17.00,337.00
             17.00,337.00 17.00,331.00 17.00,331.00
             17.25,317.50 31.38,322.06 33.49,324.31
             35.54,326.51 37.28,337.10 38.50,341.00
             42.13,352.56 46.38,361.62 56.00,369.54
             69.66,380.77 93.46,386.98 111.00,387.00
             120.06,387.01 122.37,386.25 131.00,383.71
             153.20,377.18 169.31,361.03 169.00,337.00
             168.80,321.97 158.38,308.01 145.93,300.31
             145.93,300.31 126.00,289.31 126.00,289.31
             102.11,278.33 66.95,267.52 48.09,249.84
             31.89,234.66 28.76,219.20 29.00,198.00
             29.07,192.11 30.24,186.47 32.45,181.00
             37.22,169.18 46.38,158.92 57.00,152.01
             70.75,143.08 80.63,142.61 96.00,140.21 Z
           M 217.04,141.48
           C 228.59,140.06 229.52,147.03 232.51,156.00
             232.51,156.00 239.58,179.00 239.58,179.00
             239.58,179.00 277.43,308.00 277.43,308.00
             277.43,308.00 288.87,345.00 288.87,345.00
             290.33,348.45 293.44,355.13 298.00,354.75
             302.08,354.41 304.72,349.35 305.98,346.00
             305.98,346.00 314.29,318.00 314.29,318.00
             314.29,318.00 340.26,226.00 340.26,226.00
             343.05,215.94 344.92,198.34 357.00,195.70
             372.40,192.34 375.16,211.21 377.87,222.00
             377.87,222.00 390.44,266.00 390.44,266.00
             390.44,266.00 405.20,319.00 405.20,319.00
             407.62,327.12 410.82,341.01 414.32,347.98
             416.16,351.65 419.33,355.64 423.83,353.01
             428.10,350.51 430.00,344.44 431.27,340.00
             431.27,340.00 439.71,310.00 439.71,310.00
             439.71,310.00 473.58,188.00 473.58,188.00
             473.58,188.00 485.22,149.00 485.22,149.00
             487.67,143.17 492.57,139.71 498.98,141.57
             506.95,143.88 504.76,151.04 503.42,157.00
             503.42,157.00 491.42,202.00 491.42,202.00
             491.42,202.00 448.14,357.00 448.14,357.00
             448.14,357.00 438.81,390.00 438.81,390.00
             436.37,397.81 433.91,404.20 425.00,406.32
             408.57,410.23 405.00,393.72 401.58,382.00
             401.58,382.00 374.91,287.00 374.91,287.00
             374.91,287.00 367.36,262.00 367.36,262.00
             366.08,258.63 364.25,253.72 360.00,253.31
             356.15,252.93 353.46,256.98 352.10,260.00
             348.83,267.28 346.17,278.92 343.86,287.00
             343.86,287.00 316.00,387.00 316.00,387.00
             314.80,391.11 313.26,396.42 310.87,399.96
             306.00,407.16 296.25,408.78 289.02,404.16
             283.31,400.52 282.07,394.91 279.95,389.00
             279.95,389.00 268.43,350.00 268.43,350.00
             268.43,350.00 224.72,202.00 224.72,202.00
             224.72,202.00 212.35,158.00 212.35,158.00
             210.71,150.90 207.99,144.25 217.04,141.48 Z
           M 357.00,245.00
           C 357.00,245.00 356.00,245.00 356.00,245.00
             356.00,245.00 357.00,246.00 357.00,246.00
             357.00,246.00 357.00,245.00 357.00,245.00 Z" />
      
</svg>
